<svg id="Layer_1" viewBox="0 0 48 48" xmlns="http://www.w3.org/2000/svg" data-name="Layer 1"><path d="m29.86669 14.95a20.64781 20.64781 0 0 0 -5.86675-.88755c-11.09161 0-20.11661 9.99584-20.11661 9.99584a1.49844 1.49844 0 0 0 0 2.00418 37.37981 37.37981 0 0 0 8.33747 6.53331l-5.3416 5.34176a1.50113 1.50113 0 0 0 2.12085 2.125l29.99995-30.00002a1.50115 1.50115 0 0 0 -2.12085-2.125zm5.91253 2.575-6.18757 6.1875a5.7464 5.7464 0 0 1 -6.94165 6.9375l-4.51667 4.52087a20.67375 20.67375 0 0 0 5.86662.89162c11.09168 0 20.11668-10 20.11668-10a1.49829 1.49829 0 0 0 0-2.00418 37.3805 37.3805 0 0 0 -8.3374-6.5333zm-10.42922 1.94584a5.75614 5.75614 0 0 0 -6.94167 6.93754z" fill-rule="evenodd" fill="#000000" style="fill: rgb(169, 173, 175);"></path></svg>