<svg id="Layer_1" enable-background="new 0 0 24 24" viewBox="0 0 24 24" xmlns="http://www.w3.org/2000/svg"><switch><g><path d="m10.8 16.3c.4.4 1 .4 1.4 0l3.6-3.6c.4-.4.4-1 0-1.4l-3.6-3.6c-.4-.4-1-.4-1.4 0s-.4 1 0 1.4l1.9 1.9h-8.7c-.5 0-1 .4-1 1s.5 1 1 1h8.7l-1.9 1.9c-.4.4-.4 1 0 1.4zm8.2-13.3h-14c-1.1 0-2 .9-2 2v3c0 .6.5 1 1 1s1-.4 1-1v-2c0-.6.4-1 1-1h12c.5 0 1 .4 1 1v12c0 .5-.5 1-1 1h-12c-.6 0-1-.5-1-1v-2c0-.6-.4-1-1-1s-1 .4-1 1v3c0 1.1.9 2 2 2h14c1.1 0 2-.9 2-2v-14c0-1.1-.9-2-2-2z" fill="#000000" style="fill: rgb(168, 173, 177);"></path></g></switch></svg>