<svg id="Layer_1" viewBox="0 0 48 48" xmlns="http://www.w3.org/2000/svg" data-name="Layer 1"><path d="m16.87635 25.70008a1.98416 1.98416 0 0 0 -2.13738-.05417 21.79632 21.79632 0 0 0 -9.49592 15.07086 1.973 1.973 0 0 0 1.95834 2.25843c6.72073.0248 26.85419.0248 33.57505.0248a1.99924 1.99924 0 0 0 1.97907-2.28322 21.88872 21.88872 0 0 0 -9.51651-15.07087 1.98437 1.98437 0 0 0 -2.1375.05417 13.095 13.095 0 0 1 -14.22513 0zm7.11265-20.70008a9.77094 9.77094 0 1 1 -9.80009 9.771 9.791 9.791 0 0 1 9.80009-9.771z" fill-rule="evenodd" fill="#000000" style="fill: rgb(169, 173, 175);"></path></svg>