<svg id="Layer_1" viewBox="0 0 48 48" xmlns="http://www.w3.org/2000/svg" data-name="Layer 1"><path d="m30.01257 7.16245a3.49421 3.49421 0 0 0 -2.93744-3.44162.05179.05179 0 0 0 -.02513-.00433 20.9648 20.9648 0 0 0 -6.10415.01272.03864.03864 0 0 0 -.02086.00407 3.48224 3.48224 0 0 0 -2.92485 3.41263c-.01679.73318-.01679 1.59149-.02085 2.29149a.49567.49567 0 0 1 -.3.45433 14.64677 14.64677 0 0 0 -2.72929 1.56657c-.00406 0-.00826.00407-.01258.00826a.49478.49478 0 0 1 -.53317.02912c-.00827-.00394-.01259-.00814-.02086-.00814-.6-.3334-1.32916-.75429-1.95833-1.11249a3.50082 3.50082 0 0 0 -4.45.8208c-.0084.00826-.01247.01653-.01679.02072a20.86578 20.86578 0 0 0 -3.04158 5.296c0 .00407-.0042.00839-.0042.01653a3.48755 3.48755 0 0 0 1.49167 4.24169c.62905.37918 1.37075.80846 1.975 1.16246a.48657.48657 0 0 1 .2416.48752 14.69966 14.69966 0 0 0 -.00814 3.146v.01666a.48262.48262 0 0 1 -.24173.47493.06115.06115 0 0 1 -.01665.01259c-.58747.354-1.31671.779-1.94168 1.14161a3.49342 3.49342 0 0 0 -1.51265 4.26243c.00432.00814.00432.02086.00852.029a20.96871 20.96871 0 0 0 3.06231 5.27928l.01272.01246a3.48749 3.48749 0 0 0 4.42072.82907c.64583-.35833 1.38754-.78329 1.99178-1.12915a.499.499 0 0 1 .54576.02924 14.66117 14.66117 0 0 0 2.72077 1.58336l.01246.00839a.49036.49036 0 0 1 .29577.44574v.02086c.01258.68753.01258 1.52918.01691 2.25417a3.494 3.494 0 0 0 2.93731 3.44162.0533.0533 0 0 0 .02505.00419 20.95663 20.95663 0 0 0 6.10428-.01246.03837.03837 0 0 0 .02086-.00413 3.48283 3.48283 0 0 0 2.925-3.4125c.01653-.73338.01653-1.59168.02085-2.29175a.49515.49515 0 0 1 .29984-.45413 14.672 14.672 0 0 0 2.72918-1.56653c.00432 0 .00826-.0042.01246-.0084a.49455.49455 0 0 1 .5333-.02912c.00851.0042.01258.00814.021.00814.6.33353 1.32916.75417 1.95833 1.1125a3.5009 3.5009 0 0 0 4.45-.82067c.00839-.0084.01258-.01679.01665-.02086a20.86316 20.86316 0 0 0 3.04159-5.29581c0-.00433.00419-.0084.00419-.01679a3.48763 3.48763 0 0 0 -1.49162-4.24172c-.62917-.37918-1.371-.80821-1.975-1.16246a.48707.48707 0 0 1 -.24185-.4874 14.69185 14.69185 0 0 0 .00852-3.146v-.01665a.48166.48166 0 0 1 .2416-.47493.05555.05555 0 0 1 .01678-.01247c.58734-.35413 1.31658-.77921 1.94156-1.14161a3.49351 3.49351 0 0 0 1.51249-4.26248c-.00419-.00839-.00419-.02085-.00826-.02925a20.97326 20.97326 0 0 0 -3.0627-5.27916l-.01246-.01246a3.48749 3.48749 0 0 0 -4.42072-.82906c-.64583.3582-1.38753.78316-1.99166 1.12915a.49972.49972 0 0 1 -.546-.02937 14.66083 14.66083 0 0 0 -2.72064-1.5831l-.01256-.0084a.49113.49113 0 0 1 -.29576-.44594v-.02073c-.01259-.68766-.01259-1.52918-.01666-2.25423zm-6.01247 9.10835a7.72915 7.72915 0 1 0 7.72908 7.7292 7.73195 7.73195 0 0 0 -7.72908-7.7292z" fill-rule="evenodd" fill="#000000" style="fill: rgb(169, 173, 176);"></path></svg>